HIERARCHY
ROOT Hips
{
	OFFSET 0.00000 0.00000 0.00000
	CHANNELS 6 Xposition Yposition Zposition Yrotation Zrotation Xrotation 
	JOINT Lumbar
	{
		OFFSET 0 0 0
		CHANNELS 3 Zrotation Xrotation Yrotation
		JOINT Neck
		{
			OFFSET 0.00 0.2701 0.00
			CHANNELS 3 Zrotation Xrotation Yrotation
			End Site
			{
				OFFSET 0.00 0.1379 0.00
			}
		}
		JOINT RightShoulder
		{
			OFFSET 0.0119 0.2289 0.1181
			CHANNELS 3 Zrotation Xrotation Yrotation
			JOINT RightElbow
			{
				OFFSET 0.00 -0.1475 0.00
				CHANNELS 2 Zrotation Yrotation
				JOINT RightWrist
				{
					OFFSET 0.00 -0.1605 0.00
					CHANNELS 2 Zrotation Xrotation
					End Site
					{
						OFFSET 0.0040 -0.1068 0.0006
					}
				}
			}
		}
		JOINT LeftShoulder
		{
			OFFSET 0.0119 0.2289 -0.1181
			CHANNELS 3 Zrotation Xrotation Yrotation
			JOINT LeftElbow
			{
				OFFSET 0.00 -0.1475 0.00
				CHANNELS 2 Zrotation Yrotation
				JOINT LeftWrist
				{
					OFFSET 0.00 -0.1605 0.00
					CHANNELS 2 Zrotation Xrotation
					End Site
					{
						OFFSET 0.0040 -0.1068 -0.0006
					}
				}
			}
		}
	}
	JOINT RightHip
	{
		OFFSET 0.0316 -0.0424 0.0458
		CHANNELS 3 Zrotation Xrotation Yrotation
		JOINT RightKnee
		{
			OFFSET 0.00 -0.2438 0.00
			CHANNELS 1 Zrotation
			JOINT RightAnkle
			{
				OFFSET 0.00 -0.2449 0.00
				CHANNELS 3 Zrotation Xrotation Yrotation
				End Site
				{
					OFFSET 0.1237 -0.0542 0.0051
				}
			}
		}
	}
	JOINT LeftHip
	{
		OFFSET 0.0316 -0.0424 -0.0458
		CHANNELS 3 Zrotation Xrotation Yrotation
		JOINT LeftKnee
		{
			OFFSET 0.00 -0.2438 0.00
			CHANNELS 1 Zrotation
			JOINT LeftAnkle
			{
				OFFSET 0.00 -0.2449 0.00
				CHANNELS 3 Zrotation Xrotation Yrotation
				End Site
				{
					OFFSET 0.1237 -0.0542 -0.0051
				}
			}
		}
	}
}
MOTION
Frames: 25
Frame Time: 0.02
-5e-05 -1e-05 0.00015 -176.9745 -32.08534 -2.07487 45.35323 2.16838 -4.21263 -6.11768 -2.37455 -0.10612 -14.67274 -1.68538 0.11624 28.32291 133.78926 11.4174 10.89351 -16.47955 5.90239 -6.13524 28.99868 -117.61223 16.4457 -3.55438 33.65464 -0.96297 -10.17205 -20.89241 -8.35109 -4.68282 -3.2151 36.77775 7.61697 2.64511 -26.97943 -8.86351 4.7939 3.29924
-0 -1e-05 8e-05 -176.98341 -32.09673 -2.07473 45.34832 2.16755 -4.22512 -6.116 -2.37291 -0.10639 -14.63639 -1.89864 0.928 28.31992 129.12327 10.65594 9.75741 -16.45051 5.8922 -6.15543 28.97548 -117.58864 16.42848 -3.57014 33.67843 -0.93798 -10.06436 -20.89398 -8.35712 -4.6894 -3.21987 36.79378 7.63305 2.69164 -26.97954 -8.8621 4.79112 3.29793
5e-05 -2e-05 2e-05 -176.99232 -32.10808 -2.0746 45.3434 2.16672 -4.2376 -6.11432 -2.37128 -0.10666 -14.60013 -2.11122 1.73726 28.31694 124.47165 9.89683 8.62485 -16.42153 5.88204 -6.1756 28.95235 -117.56552 16.41134 -3.58591 33.70214 -0.91305 -9.95703 -20.89555 -8.36313 -4.69596 -3.22463 36.80975 7.64907 2.73794 -26.97964 -8.86069 4.78834 3.29663
0.0001 -2e-05 -5e-05 -177.00121 -32.11944 -2.07446 45.3385 2.16589 -4.25006 -6.11265 -2.36964 -0.10693 -14.56388 -2.32382 2.54655 28.31396 119.81989 9.1377 7.49223 -16.39257 5.87188 -6.19574 28.92923 -117.54208 16.39418 -3.60163 33.72587 -0.88814 -9.84967 -20.89713 -8.36914 -4.70252 -3.22939 36.82574 7.66509 2.78431 -26.97975 -8.85928 4.78557 3.29532
0.00015 -2e-05 -0.00011 -177.01008 -32.13082 -2.07431 45.33361 2.16507 -4.26253 -6.11097 -2.368 -0.1072 -14.52754 -2.53709 3.35828 28.311 115.15415 8.37629 6.35613 -16.36356 5.86171 -6.21587 28.90605 -117.51798 16.37691 -3.6173 33.74965 -0.86316 -9.74193 -20.8987 -8.37517 -4.7091 -3.23417 36.84176 7.68117 2.83096 -26.97986 -8.85786 4.78278 3.29401
0.00019 -2e-05 -0.00018 -177.01907 -32.14209 -2.07423 45.32862 2.1642 -4.27503 -6.10931 -2.36637 -0.10747 -14.49145 -2.74821 4.16223 28.30799 110.5327 7.62209 5.23112 -16.33466 5.85158 -6.2361 28.88301 -117.49692 16.36004 -3.63328 33.77321 -0.83834 -9.63546 -20.90025 -8.38113 -4.7156 -3.23888 36.8576 7.69707 2.87655 -26.97995 -8.85649 4.78004 3.29273
0.00024 -2e-05 -0.00024 -177.02782 -32.15364 -2.07401 45.32388 2.16344 -4.28744 -6.10762 -2.36472 -0.10774 -14.45489 -2.96345 4.98111 28.30505 105.82647 6.85408 4.08487 -16.30556 5.84136 -6.25614 28.85972 -117.46985 16.34241 -3.64864 33.79726 -0.81325 -9.52657 -20.90187 -8.38722 -4.72225 -3.24372 36.87387 7.71329 2.92414 -26.98009 -8.85501 4.77721 3.29138
0.00029 -2e-05 -0.00031 -177.03678 -32.16481 -2.07391 45.3188 2.16257 -4.29994 -6.10596 -2.3631 -0.10802 -14.41879 -3.17483 5.78596 28.30207 101.19977 6.09903 2.95854 -16.27665 5.83123 -6.27632 28.83666 -117.44815 16.32546 -3.66455 33.82071 -0.78839 -9.41986 -20.90339 -8.39319 -4.72877 -3.24845 36.8896 7.72925 2.97004 -26.98016 -8.85363 4.77445 3.29009
0.00034 -2e-05 -0.00037 -177.04606 -32.17598 -2.07399 45.31375 2.16159 -4.31257 -6.10429 -2.36147 -0.10829 -14.38315 -3.3818 6.57503 28.29894 96.66302 5.35862 1.85476 -16.24793 5.82119 -6.29684 28.81388 -117.43379 16.3094 -3.68121 33.84404 -0.76386 -9.31601 -20.90491 -8.39901 -4.73513 -3.25302 36.90526 7.74477 3.01329 -26.98023 -8.85239 4.77181 3.2889
0.0004 -3e-05 -0.00044 -177.05367 -32.18855 -2.07314 45.30986 2.16133 -4.32452 -6.10253 -2.35975 -0.10855 -14.34453 -3.6151 7.45902 28.29637 91.58674 4.53034 0.61579 -16.21799 5.81058 -6.3159 28.78945 -117.37954 16.28839 -3.69379 33.86988 -0.73756 -9.19629 -20.90682 -8.40569 -4.74241 -3.25844 36.92309 7.76245 3.07003 -26.98059 -8.85043 4.76858 3.28721
0.00044 -3e-05 -0.0005 -177.06472 -32.19726 -2.07418 45.30267 2.1595 -4.33783 -6.10106 -2.35832 -0.10884 -14.3124 -3.79223 8.14006 28.29282 87.66314 3.88986 -0.3344 -16.19073 5.80121 -6.33771 28.76856 -117.40789 16.27772 -3.71484 33.88928 -0.71493 -9.1097 -20.90765 -8.41057 -4.74774 -3.26208 36.9352 7.77582 3.09945 -26.98013 -8.84991 4.76654 3.28654
0.00045 -2e-05 -0.0006 -177.08591 -32.20325 -2.08088 45.29384 2.15367 -4.35547 -6.09971 -2.35693 -0.10916 -14.29658 -3.81932 8.28255 28.28483 86.80711 3.74843 -0.51569 -16.17004 5.79515 -6.37012 28.75721 -117.67734 16.29653 -3.76014 33.90093 -0.70285 -9.11809 -20.90784 -8.41033 -4.74765 -3.26065 36.94153 7.77539 3.04361 -26.97919 -8.85405 4.7683 3.28914
0.00044 -2e-05 -0.0007 -177.11044 -32.20427 -2.0894 45.28067 2.14621 -4.37432 -6.09876 -2.35593 -0.10951 -14.28754 -3.78958 8.21893 28.27619 87.1209 3.79773 -0.40405 -16.15218 5.79044 -6.40498 28.74963 -118.02644 16.32545 -3.81362 33.90475 -0.69439 -9.15925 -20.90663 -8.4083 -4.7456 -3.25745 36.94076 7.77103 2.96224 -26.97716 -8.85952 4.77116 3.2927
0.00044 -1e-05 -0.00079 -177.13298 -32.20192 -2.09673 45.26418 2.1393 -4.39229 -6.09806 -2.35528 -0.10985 -14.27642 -3.78279 8.23631 28.26893 86.96843 3.77145 -0.40931 -16.1335 5.78509 -6.43639 28.74018 -118.33049 16.34908 -3.86285 33.90503 -0.6839 -9.18244 -20.90443 -8.40723 -4.74452 -3.2552 36.93616 7.76974 2.8993 -26.97437 -8.86394 4.77319 3.29552
0.00045 -1e-05 -0.0009 -177.15745 -32.22176 -2.10547 45.26857 2.1332 -4.41186 -6.09556 -2.35255 -0.11016 -14.26118 -3.78676 8.3024 28.25698 86.56408 3.70223 -0.47673 -16.11282 5.77957 -6.47661 28.73063 -118.67469 16.37588 -3.91486 33.93325 -0.67489 -9.21764 -20.90868 -8.4056 -4.74314 -3.25238 36.95936 7.76293 2.80751 -26.97659 -8.87024 4.77664 3.29961
0.00044 -1e-05 -0.00099 -177.17877 -32.19617 -2.11185 45.23027 2.12503 -4.42816 -6.09689 -2.35406 -0.11055 -14.25599 -3.75644 8.22362 28.25477 86.93436 3.76323 -0.35243 -16.09704 5.77511 -6.50036 28.72315 -118.95085 16.39823 -3.96234 33.90394 -0.66385 -9.23691 -20.89969 -8.40466 -4.74186 -3.25028 36.92547 7.76679 2.76971 -26.96849 -8.87296 4.77735 3.30128
0.00041 -0 -0.00105 -177.18983 -32.02902 -2.11016 45.059 2.11136 -4.43694 -6.10879 -2.36858 -0.11114 -14.27783 -3.63129 7.74703 28.27853 89.39472 4.17575 0.29269 -16.09353 5.77022 -6.46741 28.71283 -119.04677 16.40779 -4.0008 33.69596 -0.64457 -9.19287 -20.84976 -8.40643 -4.74182 -3.2511 36.71412 7.80038 2.88772 -26.92869 -8.86534 4.77067 3.29615
0.00038 0 -0.00109 -177.19765 -31.81933 -2.10625 44.84762 2.09566 -4.44203 -6.12454 -2.38699 -0.11181 -14.30929 -3.47594 7.13933 28.31222 92.55465 4.70637 1.1105 -16.0949 5.76708 -6.4201 28.70635 -119.06591 16.41209 -4.0332 33.43419 -0.62343 -9.13376 -20.78736 -8.40888 -4.74185 -3.25264 36.44943 7.84498 3.06082 -26.87911 -8.85411 4.76112 3.28852
0.00034 1e-05 -0.00115 -177.20754 -31.64071 -2.1041 44.66564 2.08102 -4.44767 -6.13842 -2.40282 -0.11244 -14.33582 -3.34402 6.62519 28.34221 95.23186 5.15635 1.80556 -16.09448 5.76494 -6.38599 28.70258 -119.103 16.41754 -4.06499 33.21156 -0.60432 -9.08895 -20.73387 -8.41078 -4.74154 -3.25353 36.22355 7.88498 3.20846 -26.83635 -8.84464 4.7526 3.28197
0.0003 1e-05 -0.00119 -177.21537 -31.41322 -2.09884 44.43768 2.06586 -4.4582 -6.15271 -2.42248 -0.11308 -14.36526 -3.17034 5.9665 28.36917 98.62487 5.72311 2.69062 -16.0926 5.75465 -6.32256 28.67833 -119.21632 16.42875 -4.11204 32.92751 -0.58043 -9.01384 -20.66694 -8.41365 -4.74252 -3.25569 35.93666 7.92312 3.35723 -26.78378 -8.83471 4.74527 3.27572
0.00028 3e-05 -0.00125 -177.22622 -31.27641 -2.0995 44.29432 2.05118 -4.45752 -6.16721 -2.43459 -0.11373 -14.39043 -3.07573 5.5728 28.40426 100.70397 6.07691 3.2261 -16.0946 5.76255 -6.3183 28.69988 -119.14918 16.42637 -4.12478 32.75762 -0.56588 -8.9978 -20.62468 -8.4147 -4.74077 -3.25541 35.76332 7.9678 3.51677 -26.74903 -8.82487 4.73477 3.26823
0.00032 9e-05 -0.00134 -177.24995 -31.40976 -2.11707 44.40893 2.03943 -4.42796 -6.17991 -2.42923 -0.11433 -14.40423 -3.2203 6.01059 28.46359 98.75323 5.77208 2.6742 -16.10761 5.81317 -6.46732 28.82656 -118.6241 16.3899 -4.05292 32.92603 -0.57839 -9.14798 -20.65684 -8.41058 -4.73212 -3.24823 35.92513 8.02779 3.69472 -26.76845 -8.81608 4.71627 3.258
0.00039 0.00018 -0.00143 -177.27608 -31.63419 -2.14066 44.60717 2.02802 -4.38702 -6.19292 -2.41542 -0.11497 -14.41252 -3.44356 6.70882 28.52972 95.49312 5.25553 1.77707 -16.12357 5.88325 -6.67873 29.00245 -117.91677 16.33965 -3.94536 33.20959 -0.60011 -9.35755 -20.7137 -8.40467 -4.72067 -3.23862 36.2017 8.09394 3.88112 -26.80569 -8.80753 4.69468 3.24661
0.00046 0.00026 -0.00153 -177.29865 -31.81072 -2.1615 44.75784 2.01571 -4.35054 -6.20677 -2.40257 -0.11562 -14.42186 -3.62193 7.24343 28.59031 92.97783 4.8625 1.08999 -16.13778 5.94922 -6.8707 29.16989 -117.27681 16.29406 -3.84803 33.43372 -0.61712 -9.54079 -20.75706 -8.39949 -4.70997 -3.23012 36.4199 8.15743 4.06263 -26.83308 -8.79886 4.67442 3.23569
0.00048 0.00033 -0.00161 -177.33163 -32.01296 -2.18236 44.94829 2.00645 -4.31697 -6.21675 -2.40172 -0.11608 -14.43896 -3.83662 7.96102 28.66266 89.85575 4.35907 0.18834 -16.15587 5.99575 -7.02524 29.28101 -116.69469 16.25442 -3.77459 33.68508 -0.63656 -9.72285 -20.80942 -8.39443 -4.70114 -3.22151 36.66165 8.22101 4.25134 -26.86747 -8.79 4.65429 3.22485
